<svg xmlns="http://www.w3.org/2000/svg" xmlns:xlink="http://www.w3.org/1999/xlink" width="72.689" height="72.664" viewBox="0 0 72.689 72.664">
  <defs>
    <clipPath id="clip-path">
      <rect id="Rectangle_15" data-name="Rectangle 15" width="72.689" height="72.664"/>
    </clipPath>
  </defs>
  <g id="Group_9" data-name="Group 9" clip-path="url(#clip-path)">
    <path id="Path_37" data-name="Path 37" d="M0,35.332c1.092-4.364,4.422-6.578,8.135-8.377a49.969,49.969,0,0,1,13.477-3.973,3.6,3.6,0,0,1,.628-.106c.462.006.569-.236.635-.653a56.3,56.3,0,0,1,3.1-11.9,24.955,24.955,0,0,1,3.76-6.713c3.91-4.8,9.264-4.809,13.18-.021a28.025,28.025,0,0,1,4.744,9.442,69.053,69.053,0,0,1,2.887,15.43A99.307,99.307,0,0,1,50.5,44.9c-.014.16-.018.32-.034.616,1.154-.232,2.235-.426,3.306-.668a34.648,34.648,0,0,0,10.846-4.005A13.738,13.738,0,0,0,67.537,38.4c1.231-1.364,1.164-2.692.023-4.168a12.115,12.115,0,0,0-4-3.115c-.766-.415-1.565-.772-2.54-1.248.218.376.339.58.456.786a2.147,2.147,0,0,1-.6,2.839,2.03,2.03,0,0,1-2.856-.413Q55.854,30.1,53.8,27.037a2.029,2.029,0,0,1,1.01-3.053q3.463-1.253,6.975-2.366a2.067,2.067,0,0,1,2.543,1.376A2.122,2.122,0,0,1,63.194,25.6c-.206.1-.42.18-.627.267A36.418,36.418,0,0,1,66.29,27.8a23.631,23.631,0,0,1,4.1,3.231c3.147,3.316,3.034,7.454-.124,10.774A21.785,21.785,0,0,1,62.106,46.8a55.064,55.064,0,0,1-11.568,2.992c-.47.074-.67.211-.752.715a51.53,51.53,0,0,1-4.061,14.039,17.655,17.655,0,0,1-4.608,6.3,9.971,9.971,0,0,1-3.786,1.817H35.343a21.942,21.942,0,0,1-3.189-1.441,15.011,15.011,0,0,1-4.887-6.056c-.528-1.021-.978-2.083-1.492-3.189-.128.3-.221.534-.33.762a2.1,2.1,0,0,1-2.663,1.128,2.071,2.071,0,0,1-1.3-2.587c.809-2.342,1.656-4.673,2.57-6.976a1.974,1.974,0,0,1,2.922-.925c2.081,1.437,4.105,2.955,6.112,4.491a1.893,1.893,0,0,1,.617,2.123,1.861,1.861,0,0,1-1.7,1.491,8.349,8.349,0,0,1-1.912-.324,17.092,17.092,0,0,0,3.952,6.177c1.572,1.408,3.014,1.5,4.521.036a16.142,16.142,0,0,0,2.624-3.4,34.033,34.033,0,0,0,3.518-9.682c.287-1.231.518-2.476.793-3.8-.571.03-1.014.048-1.457.078-1.109.073-2.215.177-3.325.224a91.184,91.184,0,0,1-19.362-1.124A48.936,48.936,0,0,1,8.038,45.693C4.353,43.892,1.046,41.677,0,37.32ZM46.064,46.27c.083-.736.15-1.226.19-1.718a88.083,88.083,0,0,0-.979-23.529A43.136,43.136,0,0,0,41.7,9.564,12.855,12.855,0,0,0,38.509,5.18c-1.534-1.262-2.958-1.322-4.372.071a16.475,16.475,0,0,0-2.709,3.511,37.008,37.008,0,0,0-3.753,10.872c-.179.84-.321,1.687-.488,2.577.224,0,.314,0,.405,0,3.992-.118,7.985-.244,11.977-.35a2.076,2.076,0,0,1,2.121,1.367,2.1,2.1,0,0,1-2.108,2.878,103.489,103.489,0,0,0-12.4.409c-.471.049-.647.174-.666.66-.131,3.448-.307,6.895-.426,10.343-.041,1.18.066,2.364.06,3.546a2.124,2.124,0,1,1-4.244-.1c0-3.334.015-6.667.064-10,.017-1.222.145-2.442.225-3.694a1.5,1.5,0,0,0-.313-.017A45.069,45.069,0,0,0,9.458,31.047a13.242,13.242,0,0,0-4.123,2.958c-1.427,1.619-1.486,3.087.007,4.65a14.592,14.592,0,0,0,2.93,2.317,32.875,32.875,0,0,0,9.43,3.592A73.229,73.229,0,0,0,35.127,46.6c3.634.01,7.27-.214,10.937-.333" transform="translate(0 0)"/>
  </g>
</svg>
